<svg xmlns="http://www.w3.org/2000/svg" viewBox="0 0 800 600" fill="none" stroke-width="1">
<line x1="120" y1="140" x2="260" y2="90" stroke="#F4F1EA" stroke-opacity=".35"/>
<line x1="260" y1="90" x2="400" y2="170" stroke="#F4F1EA" stroke-opacity=".35"/>
<line x1="400" y1="170" x2="540" y2="100" stroke="#F4F1EA" stroke-opacity=".35"/>
<line x1="540" y1="100" x2="680" y2="160" stroke="#F4F1EA" stroke-opacity=".35"/>
<line x1="180" y1="320" x2="330" y2="300" stroke="#F4F1EA" stroke-opacity=".35"/>
<line x1="330" y1="300" x2="480" y2="330" stroke="#F4F1EA" stroke-opacity=".35"/>
<line x1="90" y1="440" x2="180" y2="320" stroke="#A79FB3" stroke-opacity=".5"/>
<line x1="250" y1="470" x2="330" y2="300" stroke="#A79FB3" stroke-opacity=".5"/>
<line x1="250" y1="470" x2="400" y2="480" stroke="#A79FB3" stroke-opacity=".5"/>
<line x1="560" y1="480" x2="480" y2="330" stroke="#A79FB3" stroke-opacity=".5"/>
<line x1="560" y1="480" x2="400" y2="480" stroke="#A79FB3" stroke-opacity=".5"/>
<line x1="720" y1="440" x2="640" y2="310" stroke="#A79FB3" stroke-opacity=".5"/>
<line x1="720" y1="440" x2="480" y2="330" stroke="#A79FB3" stroke-opacity=".5"/>
<line x1="90" y1="440" x2="330" y2="300" stroke="#A79FB3" stroke-opacity=".5"/>
<line x1="400" y1="170" x2="330" y2="300" stroke="#F4F1EA" stroke-width="2"/>
<line x1="400" y1="170" x2="480" y2="330" stroke="#F4F1EA" stroke-width="2"/>
<line x1="540" y1="100" x2="480" y2="330" stroke="#F4F1EA" stroke-width="2"/>
<line x1="260" y1="90" x2="180" y2="320" stroke="#F4F1EA" stroke-width="2"/>
<circle cx="120" cy="140" r="6" fill="#F4F1EA"/>
<circle cx="260" cy="90" r="6" fill="#F4F1EA"/>
<circle cx="400" cy="170" r="6" fill="#F4F1EA"/>
<circle cx="540" cy="100" r="6" fill="#F4F1EA"/>
<circle cx="680" cy="160" r="6" fill="#F4F1EA"/>
<circle cx="180" cy="320" r="6" fill="#F4F1EA"/>
<circle cx="330" cy="300" r="6" fill="#F4F1EA"/>
<circle cx="480" cy="330" r="6" fill="#F4F1EA"/>
<circle cx="640" cy="310" r="6" fill="#F4F1EA"/>
<circle cx="400" cy="480" r="6" fill="#F4F1EA"/>
<circle cx="90" cy="440" r="5" fill="#0A0613" stroke="#A79FB3"/>
<circle cx="250" cy="470" r="5" fill="#0A0613" stroke="#A79FB3"/>
<circle cx="560" cy="480" r="5" fill="#0A0613" stroke="#A79FB3"/>
<circle cx="720" cy="440" r="5" fill="#0A0613" stroke="#A79FB3"/>
</svg>
